<?xml version="1.0" encoding="UTF-8"?>
<svg id="Ebene_1" data-name="Ebene 1" xmlns="http://www.w3.org/2000/svg" viewBox="0 0 800 200">
  <defs>
    <style>
      .cls-1 {
        fill: #fff;
      }

      .cls-2 {
        fill: #100f0d;
      }
    </style>
  </defs>
  <g>
    <path class="cls-1" d="M193.81,177.38c-12.66-6.06-23.6-13.81-32.51-23.04-9.21-9.55-16.99-20.81-23.13-33.48-1.35-2.78-2.68-5.7-4.07-8.93-.22-.52-.74-.86-1.3-.86-.01,0-.02,0-.04,0-.58.02-1.09.38-1.29.92-2.72,7.32-6.17,14.47-10.25,21.25-5.24,8.69-12.05,16.91-20.24,24.43-7.92,7.27-17.68,13.89-29.02,19.67-1.91-3.15-4.45-6.55-7.56-10.12-2.92-3.36-5.95-6.31-9.01-8.8,10.5-5.01,19.48-10.7,26.72-16.92,7.73-6.64,14.06-13.96,18.82-21.77,4.75-7.78,8.43-15.99,10.95-24.4.66-2.21,1.3-4.55,1.88-6.96.1-.42,0-.87-.26-1.21s-.68-.54-1.12-.54h-54.87v-22.85h58.76c.74,0,1.35-.57,1.41-1.3.52-6.36.85-12.75.97-18.97.16-7.93.29-15.92.41-23.78h24.38c-.12,8.82-.37,18.01-.75,27.35-.2,5-.53,10.09-.99,15.15-.04.4.1.79.37,1.08.27.29.65.46,1.05.46h63.95v22.85h-56.38c-.46,0-.9.23-1.16.61-.27.38-.33.86-.17,1.3,2.56,7,5.55,13.73,8.9,20,5.83,10.92,13.28,20.63,22.14,28.86,8.37,7.78,18.37,14.11,29.75,18.83-1.61,1.57-3.3,3.41-5.04,5.5-2.35,2.8-4.6,5.72-6.7,8.68-1.79,2.51-3.33,4.85-4.6,6.98Z"/>
    <path class="cls-2" d="M142.01,21.16c-.13,8.37-.37,17.06-.72,25.88-.2,4.96-.53,10.03-.98,15.08-.07.79.19,1.58.73,2.17.54.59,1.3.92,2.09.92h62.53v20.01h-54.97c-.93,0-1.79.45-2.32,1.21-.53.76-.66,1.73-.34,2.6,2.58,7.06,5.6,13.85,8.98,20.18,5.9,11.06,13.45,20.89,22.43,29.23,8.02,7.45,17.5,13.59,28.24,18.28-1.19,1.24-2.41,2.61-3.65,4.1-2.37,2.83-4.65,5.78-6.77,8.76-1.5,2.11-2.84,4.11-3.99,5.97-12.02-5.9-22.42-13.36-30.95-22.19-9.11-9.44-16.8-20.58-22.87-33.11-1.34-2.77-2.67-5.67-4.04-8.87-.45-1.04-1.47-1.71-2.6-1.71-.02,0-.05,0-.07,0-1.16.03-2.18.76-2.58,1.85-2.69,7.24-6.09,14.31-10.13,21.01-5.17,8.57-11.89,16.69-19.98,24.12-7.55,6.94-16.81,13.27-27.55,18.86-1.86-2.9-4.2-5.98-7-9.19-2.44-2.8-4.95-5.32-7.5-7.54,9.77-4.83,18.19-10.25,25.06-16.17,7.84-6.74,14.27-14.17,19.11-22.1,4.81-7.88,8.54-16.2,11.1-24.73.67-2.24,1.31-4.61,1.9-7.03.21-.85.01-1.74-.52-2.42-.54-.68-1.36-1.08-2.23-1.08h-53.46v-20.01h57.34c1.48,0,2.71-1.13,2.83-2.6.52-6.4.85-12.81.97-19.05.15-7.46.28-14.98.39-22.39h21.54M144.88,18.33h-27.21c-.11,8.16-.25,16.56-.42,25.17-.12,6.28-.45,12.57-.96,18.88h-60.18v25.68h56.29c-.56,2.31-1.18,4.6-1.86,6.89-2.5,8.33-6.1,16.36-10.8,24.07-4.71,7.71-10.88,14.86-18.54,21.43-7.65,6.58-17.15,12.47-28.49,17.69,3.63,2.72,7.17,6.06,10.63,10.03,3.46,3.97,6.15,7.65,8.08,11.06,12.02-6.01,22.2-12.84,30.53-20.5,8.33-7.65,15.16-15.9,20.49-24.75,4.17-6.92,7.61-14.08,10.36-21.49,1.32,3.07,2.68,6.07,4.1,8.98,6.23,12.87,14.03,24.15,23.39,33.85,9.35,9.69,20.72,17.66,34.1,23.9,1.36-2.38,3.09-5.05,5.19-7.99,2.1-2.95,4.31-5.81,6.63-8.59,2.32-2.78,4.51-5.07,6.55-6.89-12.13-4.76-22.59-11.22-31.38-19.39-8.79-8.16-16.07-17.66-21.86-28.49-3.37-6.3-6.3-12.91-8.82-19.81h57.8v-25.68h-65.37c.45-5.07.79-10.15.99-15.22.4-9.92.65-19.53.77-28.83h0Z"/>
  </g>
  <g>
    <path class="cls-1" d="M374.39,178.2c-4.49-2.15-9.97-4.45-16.32-6.85-4.64-1.75-9.69-3.55-15-5.34-.15-.05-.3-.07-.45-.07-.19,0-.38.04-.55.11-5.11,2.15-10.99,4.09-17.5,5.77-9.51,2.44-21.19,4.47-34.71,6.03-.67-2.43-1.81-5.18-3.39-8.21-1.32-2.52-2.63-4.72-3.9-6.58,11.05-1.04,20.68-2.36,28.67-3.95.65-.13,1.12-.68,1.14-1.34.02-.66-.41-1.24-1.04-1.42-6.69-1.83-13.11-3.41-19.13-4.71,3.07-3.36,6.3-7.17,9.63-11.34.34-.43.4-1.01.17-1.5-.24-.49-.73-.8-1.28-.8h-15.11v-15.19h28.08c.48,0,.93-.24,1.19-.65,1.7-2.62,3.29-5.21,4.74-7.71.25-.44.26-.98,0-1.42-.25-.44-.72-.71-1.23-.71h-26.67v-30.16h34.13c.78,0,1.42-.63,1.42-1.42v-4.08c0-.78-.63-1.42-1.42-1.42h-30.56v-15.42c0-.78-.63-1.42-1.42-1.42h-8.28v-14.68h8.28c.78,0,1.42-.63,1.42-1.42v-14.74h30.56c.78,0,1.42-.63,1.42-1.42v-6.58h19.96v6.58c0,.78.63,1.42,1.42,1.42h31.92v14.74c0,.78.63,1.42,1.42,1.42h6.41v14.68h-6.41c-.78,0-1.42.63-1.42,1.42v15.42h-31.92c-.78,0-1.42.63-1.42,1.42v4.08c0,.78.63,1.42,1.42,1.42h35.83v30.16h-41.29c-.53,0-1.01.29-1.25.76-1.29,2.44-2.75,4.99-4.35,7.57-.27.44-.28.99-.03,1.44.25.45.72.73,1.24.73h18.71c.66,0,1.23-.46,1.38-1.1.24-1.04.45-2.02.63-2.98h18.39c-.14.75-.29,1.53-.46,2.39-.08.42.02.85.29,1.18.27.33.67.52,1.1.52h11.25v15.19h-16.74c-.56,0-1.06.33-1.29.83-1.97,4.36-4.55,8.4-7.65,11.99-.67.78-1.46,1.61-2.4,2.53-.35.35-.5.85-.39,1.34s.47.87.95,1.02c3.36,1.08,6.31,2.06,9,2.98,6.18,2.13,11.74,4.25,16.57,6.33l-13.74,13.16ZM326.07,138c-.44,0-.85.2-1.12.55l-.39.51c-.39.51-.79,1.02-1.18,1.52-.49.61-.96,1.21-1.44,1.8-.31.38-.39.89-.24,1.35.16.46.54.81,1.02.92,0,0,2.19.51,2.8.65,4.63,1.11,9.35,2.32,14.44,3.71.12.03.25.05.37.05.26,0,.52-.07.74-.21,2.8-1.71,5.2-3.58,7.13-5.55.91-.92,1.8-1.94,2.64-3.01.34-.43.4-1.01.16-1.5-.24-.49-.73-.8-1.28-.8h-23.66ZM348.64,93.78c-.78,0-1.42.63-1.42,1.42v4.25c0,.78.63,1.42,1.42,1.42h14.46c.78,0,1.42-.63,1.42-1.42v-4.25c0-.78-.63-1.42-1.42-1.42h-14.46ZM312.07,93.78c-.78,0-1.42.63-1.42,1.42v4.25c0,.78.63,1.42,1.42,1.42h13.78c.78,0,1.42-.63,1.42-1.42v-4.25c0-.78-.63-1.42-1.42-1.42h-13.78ZM348.64,55.52c-.78,0-1.42.63-1.42,1.42v5.44c0,.78.63,1.42,1.42,1.42h11.57c.78,0,1.42-.63,1.42-1.42v-5.44c0-.78-.63-1.42-1.42-1.42h-11.57ZM314.62,55.52c-.78,0-1.42.63-1.42,1.42v5.44c0,.78.63,1.42,1.42,1.42h11.23c.78,0,1.42-.63,1.42-1.42v-5.44c0-.78-.63-1.42-1.42-1.42h-11.23ZM348.64,38.85c-.78,0-1.42.63-1.42,1.42v4.76c0,.78.63,1.42,1.42,1.42h11.57c.78,0,1.42-.63,1.42-1.42v-4.76c0-.78-.63-1.42-1.42-1.42h-11.57ZM314.62,38.85c-.78,0-1.42.63-1.42,1.42v4.76c0,.78.63,1.42,1.42,1.42h11.23c.78,0,1.42-.63,1.42-1.42v-4.76c0-.78-.63-1.42-1.42-1.42h-11.23Z"/>
    <path class="cls-2" d="M345.8,20.99v5.16c0,1.57,1.27,2.83,2.83,2.83h30.5v13.32c0,1.57,1.27,2.83,2.83,2.83h4.99v11.85h-4.99c-1.57,0-2.83,1.27-2.83,2.83v14h-30.5c-1.57,0-2.83,1.27-2.83,2.83v4.08c0,1.57,1.27,2.83,2.83,2.83h34.41v27.33h-39.87c-1.05,0-2.02.58-2.51,1.51-1.28,2.42-2.73,4.94-4.3,7.48-.54.87-.57,1.97-.07,2.87.5.9,1.45,1.46,2.48,1.46h18.72c1.32,0,2.47-.91,2.76-2.2.15-.64.28-1.27.41-1.88h15.52c-.05.24-.09.47-.14.69-.17.83.05,1.7.59,2.35.54.66,1.34,1.04,2.19,1.04h9.83v12.36h-15.32c-1.11,0-2.12.65-2.58,1.67-1.92,4.24-4.42,8.16-7.43,11.65-.65.75-1.41,1.55-2.32,2.45-.71.7-1,1.71-.77,2.68.23.97.95,1.74,1.89,2.05,3.34,1.07,6.28,2.05,8.98,2.97,5.32,1.83,10.18,3.66,14.5,5.46l-11.48,10.99c-4.35-2.04-9.57-4.22-15.55-6.48-4.65-1.76-9.72-3.56-15.05-5.36-.29-.1-.6-.15-.9-.15-.38,0-.75.07-1.1.22-5.04,2.13-10.86,4.04-17.3,5.7-9.17,2.36-20.38,4.33-33.34,5.86-.71-2.23-1.77-4.68-3.16-7.32-.9-1.72-1.8-3.3-2.69-4.73,10.12-1.01,19.01-2.26,26.48-3.74,1.29-.26,2.24-1.37,2.28-2.68s-.82-2.49-2.09-2.84c-5.84-1.6-11.48-3-16.82-4.2,2.6-2.92,5.29-6.14,8.05-9.6.68-.85.81-2.02.34-3-.47-.98-1.47-1.6-2.55-1.6h-13.69v-12.36h26.66c.96,0,1.86-.49,2.38-1.29,1.71-2.63,3.31-5.25,4.78-7.77.51-.88.51-1.96,0-2.84-.51-.88-1.44-1.42-2.46-1.42h-25.25v-27.33h32.71c1.57,0,2.83-1.27,2.83-2.83v-4.08c0-1.57-1.27-2.83-2.83-2.83h-29.14v-14c0-1.57-1.27-2.83-2.83-2.83h-6.86v-11.85h6.86c1.57,0,2.83-1.27,2.83-2.83v-13.32h29.14c1.57,0,2.83-1.27,2.83-2.83v-5.16h17.12M348.64,47.86h11.57c1.57,0,2.83-1.27,2.83-2.83v-4.76c0-1.57-1.27-2.83-2.83-2.83h-11.57c-1.57,0-2.83,1.27-2.83,2.83v4.76c0,1.57,1.27,2.83,2.83,2.83M314.62,47.86h11.23c1.57,0,2.83-1.27,2.83-2.83v-4.76c0-1.57-1.27-2.83-2.83-2.83h-11.23c-1.57,0-2.83,1.27-2.83,2.83v4.76c0,1.57,1.27,2.83,2.83,2.83M348.64,65.21h11.57c1.57,0,2.83-1.27,2.83-2.83v-5.44c0-1.57-1.27-2.83-2.83-2.83h-11.57c-1.57,0-2.83,1.27-2.83,2.83v5.44c0,1.57,1.27,2.83,2.83,2.83M314.62,65.21h11.23c1.57,0,2.83-1.27,2.83-2.83v-5.44c0-1.57-1.27-2.83-2.83-2.83h-11.23c-1.57,0-2.83,1.27-2.83,2.83v5.44c0,1.57,1.27,2.83,2.83,2.83M348.64,102.29h14.46c1.57,0,2.83-1.27,2.83-2.83v-4.25c0-1.57-1.27-2.83-2.83-2.83h-14.46c-1.57,0-2.83,1.27-2.83,2.83v4.25c0,1.57,1.27,2.83,2.83,2.83M312.07,102.29h13.78c1.57,0,2.83-1.27,2.83-2.83v-4.25c0-1.57-1.27-2.83-2.83-2.83h-13.78c-1.57,0-2.83,1.27-2.83,2.83v4.25c0,1.57,1.27,2.83,2.83,2.83M340.33,150.48c.52,0,1.03-.14,1.48-.42,2.9-1.77,5.39-3.71,7.4-5.76.95-.96,1.87-2.01,2.75-3.12.67-.85.8-2.01.33-2.99-.47-.98-1.46-1.6-2.55-1.6h-23.66c-.88,0-1.71.41-2.24,1.1l-.37.48c-.4.52-.8,1.03-1.2,1.54-.48.61-.96,1.21-1.43,1.79-.61.76-.79,1.78-.47,2.7.32.92,1.09,1.61,2.04,1.84l.96.22c.6.14,1.21.28,1.83.43,4.61,1.1,9.32,2.31,14.4,3.69.24.07.5.1.74.1M348.64,18.15h-22.79v7.99h-31.97v16.16h-9.69v17.52h9.69v16.84h31.97v4.08h-35.55v33h28.08c-1.45,2.5-3.02,5.05-4.71,7.65h-29.5v18.03h16.53c-3.92,4.92-7.67,9.29-11.26,13.1,6.78,1.4,13.95,3.14,21.5,5.2-8.54,1.69-18.86,3.08-31.02,4.15,1.7,2.15,3.46,4.96,5.27,8.42,1.81,3.46,3,6.49,3.57,9.1,14.17-1.59,26.22-3.66,36.14-6.21,6.66-1.71,12.55-3.66,17.7-5.83,5.23,1.76,10.23,3.53,14.95,5.32,6.74,2.55,12.44,4.96,17.09,7.23l15.99-15.31c-5.33-2.38-11.54-4.79-18.62-7.23-2.93-1.01-5.95-2-9.03-2.99.87-.86,1.71-1.72,2.48-2.62,3.23-3.73,5.84-7.85,7.87-12.33h18.15v-18.03h-12.67c.27-1.34.53-2.69.76-4.08h-21.26c-.25,1.4-.53,2.75-.84,4.08h-18.72c1.58-2.56,3.06-5.11,4.4-7.65h42.71v-33h-37.25v-4.08h33.34v-16.84h7.82v-17.52h-7.82v-16.16h-33.34v-7.99h0ZM348.64,45.03v-4.76h11.57v4.76h-11.57ZM314.62,45.03v-4.76h11.23v4.76h-11.23ZM348.64,62.37v-5.44h11.57v5.44h-11.57ZM314.62,62.37v-5.44h11.23v5.44h-11.23ZM348.64,99.45v-4.25h14.46v4.25h-14.46ZM312.07,99.45v-4.25h13.78v4.25h-13.78ZM340.33,147.64c-4.85-1.32-9.68-2.57-14.49-3.72-.95-.23-1.87-.44-2.81-.65.48-.59.96-1.19,1.44-1.81.53-.67,1.06-1.36,1.58-2.04h23.66c-.79,1-1.63,1.96-2.54,2.89-1.88,1.91-4.17,3.69-6.86,5.33h0ZM379.59,117.31h0,0Z"/>
  </g>
  <g>
    <path class="cls-1" d="M247.84,178.48v-58.31c0-.72-.54-1.32-1.25-1.41-.06,0-.11,0-.17,0-.65,0-1.23.45-1.38,1.09-1.04,4.4-2.04,8.44-3.05,12.33-1.25,4.79-2.55,9.31-3.87,13.49-.98-2.91-2.17-6.06-3.57-9.42-1.99-4.78-3.82-8.92-5.44-12.31,1.62-3.53,3.26-7.75,4.88-12.55,1.69-5,3.35-10.28,4.95-15.7,1.58-5.36,3.02-10.62,4.27-15.62.68-2.72,1.28-5.25,1.79-7.52.09-.42,0-.86-.28-1.2-.27-.34-.68-.53-1.11-.53h-11.42v-19.96h14.23c.78,0,1.42-.63,1.42-1.42v-29.71h19.45v29.71c0,.78.63,1.42,1.42,1.42h11.34v19.96h-11.34c-.78,0-1.42.63-1.42,1.42v6.72c0,.33.11.65.32.9.94,1.14,2.23,2.93,3.83,5.32,1.93,2.9,4.01,6.09,6.19,9.5,2.21,3.46,4.25,6.66,6.12,9.61,1.47,2.32,2.58,4.11,3.3,5.36l-11.86,13.71c-.77-2.16-1.68-4.54-2.71-7.1-.79-1.95-1.62-3.95-2.48-5.97-.22-.53-.74-.86-1.3-.86-.09,0-.19,0-.28.03-.66.13-1.13.72-1.13,1.39v67.63h-19.45Z"/>
    <path class="cls-2" d="M265.86,21.16v28.29c0,1.57,1.27,2.83,2.83,2.83h9.92v17.12h-9.92c-1.57,0-2.83,1.27-2.83,2.83v6.72c0,.66.23,1.3.65,1.8.92,1.11,2.17,2.86,3.74,5.21,1.92,2.89,4,6.08,6.18,9.48,2.21,3.46,4.25,6.66,6.12,9.6,1.15,1.81,2.07,3.3,2.76,4.45l-9.61,11.12c-.58-1.54-1.21-3.17-1.9-4.88-.74-1.84-1.55-3.79-2.48-5.99-.45-1.06-1.49-1.73-2.61-1.73-.19,0-.38.02-.57.06-1.32.27-2.27,1.43-2.27,2.78v66.21h-16.61v-56.9c0-1.44-1.08-2.65-2.51-2.82-.11-.01-.22-.02-.33-.02-1.3,0-2.45.89-2.76,2.18-1.02,4.32-2.04,8.46-3.05,12.3-.85,3.25-1.72,6.37-2.6,9.34-.66-1.75-1.38-3.57-2.16-5.46-1.88-4.53-3.62-8.48-5.18-11.78,1.55-3.45,3.12-7.51,4.66-12.08,1.69-5.02,3.36-10.32,4.96-15.75,1.59-5.38,3.03-10.65,4.28-15.68.68-2.7,1.28-5.24,1.8-7.55.19-.84-.02-1.72-.55-2.39-.54-.67-1.35-1.06-2.21-1.06h-10v-17.12h12.81c1.57,0,2.83-1.27,2.83-2.83v-28.29h16.61M268.7,18.33h-22.28v31.12h-15.65v22.79h12.84c-.51,2.28-1.1,4.77-1.78,7.48-1.25,4.99-2.67,10.18-4.25,15.56-1.59,5.39-3.23,10.6-4.93,15.65-1.7,5.05-3.4,9.38-5.1,13.01,1.7,3.52,3.6,7.8,5.7,12.84,2.1,5.05,3.71,9.55,4.85,13.52,1.81-5.33,3.57-11.25,5.27-17.77,1.05-4.04,2.07-8.17,3.06-12.36v59.73h22.28v-69.05c.85,2.01,1.68,4,2.47,5.95,1.42,3.52,2.58,6.63,3.49,9.35l14.12-16.33c-.68-1.25-1.96-3.34-3.83-6.29-1.87-2.95-3.91-6.15-6.12-9.61-2.21-3.46-4.28-6.63-6.21-9.52-1.63-2.44-2.93-4.25-3.91-5.44v-6.72h12.76v-22.79h-12.76v-31.12h0Z"/>
  </g>
  <g>
    <path class="cls-1" d="M447.35,86.79c-2.01-1.42-4.5-3.03-7.41-4.8-3.46-2.1-7.03-4.28-10.71-6.54l-8.54-5.26,12.32-14.54c2.59,1.36,5.53,2.92,8.76,4.65,3.64,1.96,7.3,3.96,10.87,5.94,2.88,1.6,5.4,3.05,7.51,4.33l-12.8,16.22Z"/>
    <path class="cls-2" d="M433.35,57.43c2.33,1.23,4.93,2.61,7.74,4.12,3.64,1.96,7.29,3.96,10.85,5.94,2.27,1.26,4.3,2.42,6.09,3.48l-10.97,13.9c-1.82-1.24-3.96-2.61-6.39-4.09-3.51-2.13-7.11-4.33-10.7-6.54-2.56-1.57-4.94-3.04-7.14-4.39l10.52-12.42M432.65,53.87l-14.12,16.67c2.95,1.82,6.26,3.86,9.95,6.12,3.68,2.27,7.25,4.45,10.71,6.55,3.46,2.1,6.26,3.94,8.42,5.53l14.63-18.54c-2.38-1.47-5.36-3.2-8.93-5.19-3.57-1.98-7.2-3.97-10.89-5.95-3.69-1.98-6.95-3.71-9.78-5.19h0Z"/>
  </g>
  <g>
    <path class="cls-1" d="M446.83,56.03v-7.94c0-.78-.63-1.42-1.42-1.42h-30.9v-18.77h30.9c.78,0,1.42-.63,1.42-1.42v-6.75h21.32v6.75c0,.78.63,1.42,1.42,1.42h14.23v18.77h-14.23c-.78,0-1.42.63-1.42,1.42v7.94h-21.32Z"/>
    <path class="cls-2" d="M466.73,21.16v5.33c0,1.57,1.27,2.83,2.83,2.83h12.81v15.93h-12.81c-1.57,0-2.83,1.27-2.83,2.83v6.52h-18.48v-6.52c0-1.57-1.27-2.83-2.83-2.83h-29.48v-15.93h29.48c1.57,0,2.83-1.27,2.83-2.83v-5.33h18.48M469.56,18.33h-24.15v8.16h-32.31v21.6h32.31v9.35h24.15v-9.35h15.65v-21.6h-15.65v-8.16h0Z"/>
  </g>
  <g>
    <path class="cls-1" d="M510.1,56.03v-8.28c0-.78-.63-1.42-1.42-1.42h-13.72v-18.42h13.72c.78,0,1.42-.63,1.42-1.42v-6.75h21.32v6.75c0,.78.63,1.42,1.42,1.42h31.41v18.42h-31.41c-.78,0-1.42.63-1.42,1.42v8.28h-21.32Z"/>
    <path class="cls-2" d="M530,21.16v5.33c0,1.57,1.27,2.83,2.83,2.83h29.99v15.59h-29.99c-1.57,0-2.83,1.27-2.83,2.83v6.86h-18.48v-6.86c0-1.57-1.27-2.83-2.83-2.83h-12.3v-15.59h12.3c1.57,0,2.83-1.27,2.83-2.83v-5.33h18.48M532.83,18.33h-24.15v8.16h-15.14v21.26h15.14v9.7h24.15v-9.7h32.83v-21.26h-32.83v-8.16h0Z"/>
  </g>
  <g>
    <path class="cls-1" d="M413.06,160.95c2.9-2.63,6.1-5.7,9.54-9.13,3.85-3.85,7.9-8.07,12.03-12.54,3.73-4.04,7.4-8.16,10.92-12.26l12.68,15.82c-2.96,3.78-6.09,7.65-9.31,11.49-3.54,4.22-7.11,8.42-10.62,12.48-3.22,3.73-6.49,7.47-9.74,11.14l-15.5-17Z"/>
    <path class="cls-2" d="M445.51,129.23l10.91,13.61c-2.75,3.49-5.63,7.04-8.59,10.57-3.53,4.22-7.1,8.41-10.6,12.47-2.87,3.33-5.78,6.66-8.68,9.94l-13.48-14.79c2.63-2.42,5.5-5.18,8.54-8.22,3.86-3.87,7.92-8.1,12.07-12.58,3.35-3.63,6.65-7.32,9.84-11M445.58,124.79c-3.86,4.54-7.85,9.04-11.99,13.52-4.14,4.48-8.14,8.65-11.99,12.5-3.86,3.86-7.37,7.2-10.54,10.03l17.52,19.22c3.63-4.08,7.23-8.19,10.8-12.33,3.57-4.14,7.11-8.3,10.63-12.5,3.51-4.19,6.86-8.33,10.04-12.42l-14.46-18.03h0Z"/>
  </g>
  <g>
    <path class="cls-1" d="M436.7,121.95c-1.9-1.51-4.26-3.26-7.06-5.2-3.38-2.35-6.91-4.73-10.49-7.08-3.07-2.01-5.98-3.89-8.67-5.6l12.48-14.55c2.7,1.47,5.69,3.17,8.9,5.04,3.65,2.14,7.25,4.28,10.7,6.37,2.83,1.72,5.27,3.31,7.29,4.75l-13.14,16.27Z"/>
    <path class="cls-2" d="M423.28,91.3c2.42,1.33,5.05,2.83,7.86,4.47,3.64,2.13,7.24,4.27,10.67,6.35,2.24,1.36,4.24,2.64,5.97,3.83l-11.31,14.01c-1.71-1.32-3.73-2.79-6.03-4.39-3.39-2.36-6.93-4.74-10.52-7.1-2.56-1.68-5-3.26-7.31-4.73l10.66-12.44M422.62,87.72l-14.29,16.67c3.06,1.93,6.4,4.08,10.04,6.46,3.63,2.38,7.11,4.74,10.46,7.06,3.34,2.33,6.04,4.34,8.08,6.04l14.97-18.54c-2.27-1.7-5.13-3.6-8.59-5.7-3.46-2.1-7.03-4.22-10.71-6.38-3.69-2.15-7-4.02-9.95-5.61h0Z"/>
  </g>
  <g>
    <path class="cls-1" d="M530,178.14v-5.22c0-.78-.63-1.42-1.42-1.42h-40.65c-.78,0-1.42.63-1.42,1.42v5.22h-20.47v-47.61c0-.44-.2-.85-.55-1.12-.25-.2-.56-.3-.87-.3-.12,0-.23.01-.35.04,0,0-2.46.62-3.06.77-1.15-2.65-2.76-5.73-4.81-9.18-1.79-3.01-3.55-5.61-5.26-7.75,8.39-1.55,16.84-3.62,25.13-6.16,4.58-1.4,9.11-2.97,13.49-4.65.48-.19.83-.62.9-1.14.07-.51-.15-1.02-.57-1.33-3.08-2.25-6.04-4.66-8.79-7.17-.27-.25-.61-.37-.96-.37s-.7.13-.98.39c-4.23,4.03-8.72,7.96-13.35,11.7-1.87-2.16-4.31-4.57-7.25-7.17-2.67-2.35-5.13-4.27-7.34-5.72,7.6-5.27,14.47-11.09,20.44-17.32,6.15-6.42,11.19-12.56,15.02-18.27l20.43,4.29c-.97,1.37-1.98,2.76-3.02,4.16-.32.43-.37,1-.13,1.48.24.48.73.78,1.27.78h36.59c.13,0,.25-.02.37-.05l3.15-.86,13.86,8.44c-4.75,6.98-10.59,13.38-17.36,19.05-2.59,2.17-5.36,4.31-8.22,6.34-.44.31-.67.85-.58,1.39.09.54.48.97,1,1.13,4.62,1.36,9.28,2.56,13.85,3.57,7.1,1.56,14.51,2.85,22.05,3.84-1.94,2.13-3.95,4.73-6,7.76-2.47,3.66-4.51,6.96-6.06,9.84-1.51-.28-3.12-.6-4.9-.96-.09-.02-.19-.03-.29-.03-.32,0-.64.11-.9.32-.33.27-.52.67-.52,1.1v50.76h-21.49ZM487.93,141.92c-.78,0-1.42.63-1.42,1.42v11.05c0,.78.63,1.42,1.42,1.42h40.65c.78,0,1.42-.63,1.42-1.42v-11.05c0-.78-.63-1.42-1.42-1.42h-40.65ZM511.59,112.61c-.21,0-.42.05-.62.14-6.78,3.27-13.89,6.21-21.13,8.75-2.29.8-4.57,1.55-6.3,2.12-.66.22-1.07.88-.96,1.57s.7,1.2,1.4,1.2h58.53c.71,0,1.32-.53,1.41-1.24s-.36-1.37-1.05-1.55c-3.52-.9-6.41-1.71-9.11-2.53-7.46-2.28-14.71-5.07-21.56-8.31-.19-.09-.4-.14-.61-.14ZM496.71,81.37c-.6,0-1.14.38-1.34.96s0,1.21.47,1.58c2.98,2.33,6.36,4.55,10.03,6.59,1.12.62,2.34,1.27,3.72,1.96.2.1.42.15.64.15.24,0,.47-.06.69-.18,4.63-2.56,8.97-5.31,12.88-8.16l.46-.35c.49-.36.7-1,.5-1.58-.19-.58-.73-.97-1.35-.97h-26.71Z"/>
    <path class="cls-2" d="M487.52,57.38l17.37,3.65c-.57.79-1.15,1.58-1.74,2.38-.64.86-.74,2.01-.26,2.96.48.96,1.46,1.56,2.53,1.56h36.59c.25,0,.5-.03.75-.1l2.56-.7,12.06,7.34c-4.52,6.39-9.97,12.28-16.25,17.54-2.57,2.15-5.3,4.26-8.14,6.27-.88.63-1.33,1.71-1.15,2.78.18,1.07.95,1.94,1.99,2.25,4.66,1.37,9.35,2.58,13.95,3.59,6.32,1.39,12.89,2.57,19.57,3.5-1.44,1.74-2.9,3.72-4.39,5.92-2.24,3.32-4.13,6.35-5.63,9.05-1.21-.23-2.49-.48-3.86-.77-.19-.04-.38-.06-.57-.06-.65,0-1.28.22-1.79.64-.66.54-1.04,1.35-1.04,2.2v49.34h-18.65v-3.8c0-1.57-1.27-2.83-2.83-2.83h-40.65c-1.57,0-2.83,1.27-2.83,2.83v3.8h-17.63v-46.19c0-.87-.4-1.7-1.09-2.24-.5-.39-1.12-.6-1.74-.6-.23,0-.46.03-.69.09l-1.22.31c-.23.06-.46.12-.69.18-1.12-2.44-2.6-5.21-4.4-8.24-1.34-2.25-2.66-4.28-3.97-6.06,7.7-1.5,15.43-3.44,23.03-5.76,4.61-1.41,9.18-2.99,13.58-4.68.97-.37,1.66-1.24,1.79-2.27.14-1.03-.3-2.05-1.14-2.66-3.04-2.22-5.96-4.6-8.67-7.07-.54-.49-1.23-.74-1.91-.74s-1.41.26-1.95.78c-3.88,3.69-7.98,7.31-12.22,10.77-1.77-1.93-3.93-4.04-6.47-6.28-2.05-1.81-3.99-3.37-5.8-4.67,7.02-5.01,13.39-10.49,18.98-16.33,5.92-6.18,10.83-12.12,14.64-17.67M510.23,94.02c.47,0,.95-.12,1.37-.35,4.68-2.59,9.07-5.36,13.03-8.25.1-.07.2-.15.3-.23l.17-.13c.98-.73,1.39-2,1.01-3.17-.38-1.16-1.47-1.95-2.69-1.95h-26.71c-1.21,0-2.29.77-2.68,1.91-.39,1.14-.02,2.41.93,3.16,3.04,2.38,6.48,4.64,10.22,6.71,1.14.63,2.38,1.28,3.77,1.99.4.2.84.3,1.28.3M483.99,127.8h58.53c1.43,0,2.63-1.06,2.81-2.48.18-1.42-.72-2.75-2.11-3.1-3.49-.9-6.37-1.7-9.05-2.52-7.39-2.26-14.58-5.03-21.37-8.23-.38-.18-.8-.27-1.21-.27-.42,0-.84.09-1.23.28-6.73,3.24-13.79,6.16-20.98,8.69-2.28.8-4.55,1.55-6.27,2.11-1.33.43-2.14,1.76-1.92,3.14.22,1.38,1.41,2.39,2.8,2.39M487.93,157.22h40.65c1.57,0,2.83-1.27,2.83-2.83v-11.05c0-1.57-1.27-2.83-2.83-2.83h-40.65c-1.57,0-2.83,1.27-2.83,2.83v11.05c0,1.57,1.27,2.83,2.83,2.83M486.23,54.21c-3.86,5.9-8.99,12.19-15.39,18.88-6.41,6.69-13.75,12.81-22.03,18.37,2.61,1.47,5.61,3.71,9.01,6.72,3.4,3.01,6.06,5.7,7.99,8.08,5.13-4.09,9.97-8.31,14.52-12.65,2.79,2.55,5.76,4.97,8.9,7.26-4.33,1.67-8.8,3.21-13.39,4.62-9.07,2.78-18.2,4.96-27.38,6.55,2.15,2.38,4.39,5.53,6.72,9.44,2.32,3.91,4.05,7.29,5.19,10.12,1.42-.34,2.84-.71,4.25-1.06v49.03h23.3v-6.63h40.65v6.63h24.32v-52.18c1.97.41,3.95.8,5.95,1.16,1.59-3.06,3.74-6.6,6.46-10.63,2.72-4.02,5.33-7.23,7.82-9.61-8.5-1.02-16.75-2.41-24.75-4.17-4.75-1.04-9.32-2.24-13.75-3.54,2.88-2.05,5.65-4.18,8.31-6.41,7.31-6.12,13.46-12.98,18.45-20.58l-15.65-9.52-3.74,1.02h-36.59c1.46-1.97,2.89-3.95,4.28-5.95l-23.47-4.93h0ZM510.23,91.19c-1.25-.63-2.48-1.28-3.68-1.94-3.64-2.02-6.92-4.17-9.85-6.46h26.71c-.15.11-.3.23-.45.34-3.89,2.83-8.14,5.52-12.74,8.06h0ZM483.99,124.96c2.11-.69,4.22-1.39,6.33-2.13,7.34-2.57,14.43-5.51,21.27-8.81,6.86,3.24,14.1,6.04,21.76,8.38,3.01.92,6.08,1.76,9.17,2.55h-58.53ZM487.93,154.39v-11.05h40.65v11.05h-40.65Z"/>
  </g>
  <g>
    <path class="cls-1" d="M606.82,180.09c-1.3-1.41-2.96-2.98-4.95-4.67-2.67-2.28-5.41-4.49-8.13-6.59-2.17-1.67-4.12-2.99-5.83-3.95,3.85-6.48,6.7-13.82,8.48-21.84,1.88-8.48,3.09-17.19,3.6-25.9.51-8.66.77-16.79.77-24.15v-49.61h67.4c.39,0,.76-.16,1.02-.44.27-.28.41-.65.39-1.04-.32-7.58-.52-14.97-.6-21.99h23.14c-.17,7.32-.13,14.74.11,22.1.03.76.65,1.37,1.42,1.37h19.31c.61,0,1.14-.38,1.34-.96.2-.57,0-1.21-.47-1.58-2.47-1.93-5.07-3.83-7.72-5.66-2.73-1.88-5.37-3.63-7.89-5.21l12.96-12.82c2.64,1.36,5.46,2.98,8.42,4.83,3.35,2.1,6.57,4.21,9.56,6.26,2.46,1.69,4.57,3.33,6.27,4.91l-7.58,7.82c-.4.41-.51,1.01-.29,1.54.22.52.74.86,1.3.86h16.68v21.49h-50.41c-.4,0-.78.17-1.05.46s-.4.69-.37,1.08c.85,9.56,1.99,18.86,3.37,27.65.61,3.89,1.28,7.77,2,11.55.11.59.58,1.05,1.18,1.14.07.01.14.02.21.02.52,0,1-.28,1.25-.75,5.21-9.75,9.54-20.37,12.88-31.57l22.2,5.29c-6.92,21.3-16.42,40.56-28.25,57.26l-.36.49c-.28.39-.34.9-.16,1.35,1.17,2.93,2.38,5.5,3.59,7.66,3.19,5.69,6.4,8.46,9.83,8.46s4.7-4.56,5.47-8c.93-4.17,1.63-10.73,2.09-19.52,2.38,2.14,5.08,4.24,8.05,6.27,3.59,2.44,6.97,4.33,10.07,5.61-1.22,10.3-2.95,18.31-5.14,23.82-2.19,5.49-5.09,9.26-8.63,11.18-3.63,1.97-8.32,2.97-13.95,2.97-5.97,0-11.41-2.09-16.17-6.2-3.72-3.22-7.16-7.48-10.24-12.67-.22-.38-.61-.63-1.04-.68-.06,0-.12-.01-.18-.01-.37,0-.73.15-1,.42-7.34,7.34-15.36,13.83-23.85,19.3-1.1-1.6-2.53-3.45-4.27-5.51-2.14-2.53-4.41-5.12-6.75-7.69-1.74-1.91-3.36-3.57-4.84-4.97,11.63-6.56,22.05-14.93,31.01-24.9.33-.37.44-.88.3-1.35-.68-2.27-1.28-4.4-1.82-6.53-2.64-10.21-4.83-21.4-6.52-33.27-1.24-8.74-2.26-17.84-3.02-27.04-.06-.74-.67-1.3-1.41-1.3h-44.26c-.78,0-1.42.63-1.42,1.42v16.16c0,.78.63,1.42,1.42,1.42h40.25c0,1.48-.04,2.76-.08,3.8-.06,1.33-.09,2.49-.09,3.46-.11,11.52-.34,21.17-.68,28.68-.33,7.5-.87,13.45-1.6,17.68-.7,4.07-1.67,6.95-2.88,8.57-1.68,2.31-3.46,3.94-5.28,4.86-1.93.96-4.16,1.73-6.64,2.26-2.17.43-4.95.71-8.25.82-2.96.1-6.21.16-9.66.17-.23-3.36-.91-7.04-2.02-10.96-.97-3.4-2.14-6.46-3.47-9.13,1.68.13,3.27.23,4.76.3,2.26.11,4.11.17,5.51.17,1.32,0,2.48-.21,3.45-.62,1-.43,1.91-1.13,2.73-2.08.91-1.21,1.49-3.35,1.86-6.81.34-3.14.6-7.9.77-14.15.05-1.81.1-3.81.14-5.96,0-.38-.14-.75-.4-1.02-.27-.27-.63-.43-1.01-.43h-17.62c-.76,0-1.39.6-1.42,1.37-.11,3.23-.27,6.57-.46,9.92-.33,5.7-.9,11.61-1.69,17.54-.02.12-.02.24,0,.35-.04.11-.07.22-.09.34-.26,1.89-.53,3.79-.84,5.69-1.29,8.06-3.16,15.91-5.56,23.34-2.17,6.71-4.94,12.77-8.25,18.06Z"/>
    <path class="cls-2" d="M711.43,18.9c2.34,1.24,4.82,2.68,7.4,4.3,3.34,2.1,6.54,4.19,9.51,6.23,1.91,1.31,3.59,2.58,5.03,3.82l-6.55,6.76c-.79.82-1.02,2.03-.57,3.08.44,1.05,1.47,1.73,2.61,1.73h15.26v18.65h-48.99c-.8,0-1.55.33-2.09.92-.54.59-.8,1.37-.73,2.17.86,9.6,1.99,18.94,3.38,27.74.61,3.91,1.29,7.81,2.01,11.59.22,1.18,1.17,2.09,2.36,2.27.14.02.29.03.43.03,1.03,0,2-.57,2.5-1.5,5.05-9.46,9.29-19.73,12.6-30.55l19.41,4.62c-6.83,20.58-16.1,39.21-27.58,55.42l-.16.23-.19.26c-.56.79-.68,1.8-.32,2.7,1.19,2.98,2.43,5.61,3.67,7.82,3.46,6.18,7.08,9.19,11.06,9.19,4.83,0,6.3-6.62,6.85-9.11.85-3.84,1.5-9.39,1.96-16.88,1.85,1.53,3.86,3.03,6,4.49,3.29,2.24,6.42,4.03,9.33,5.32-1.2,9.67-2.85,17.21-4.92,22.41-2.06,5.18-4.75,8.7-7.99,10.46-3.42,1.86-7.89,2.8-13.27,2.8-5.7,0-10.68-1.92-15.24-5.86-3.6-3.12-6.95-7.26-9.95-12.32-.45-.75-1.22-1.26-2.08-1.37-.12-.01-.24-.02-.35-.02-.75,0-1.47.3-2,.83-6.94,6.94-14.49,13.11-22.47,18.37-.98-1.35-2.16-2.84-3.56-4.5-2.15-2.54-4.43-5.14-6.79-7.73-1.24-1.36-2.43-2.61-3.55-3.72,11.1-6.49,21.09-14.63,29.73-24.25.66-.74.89-1.76.61-2.71-.67-2.25-1.27-4.37-1.81-6.48-2.63-10.16-4.81-21.3-6.49-33.11-1.24-8.71-2.25-17.78-3.01-26.96-.12-1.47-1.35-2.6-2.83-2.6h-44.26c-1.57,0-2.83,1.27-2.83,2.83v16.16c0,1.57,1.27,2.83,2.83,2.83h38.81c-.01.87-.03,1.64-.06,2.32-.06,1.35-.09,2.53-.09,3.5-.11,11.52-.34,21.16-.68,28.65-.33,7.44-.86,13.33-1.58,17.5-.82,4.79-1.88,6.97-2.64,8-1.54,2.11-3.14,3.59-4.76,4.4-1.82.91-3.95,1.63-6.26,2.14-2.11.42-4.82.69-8.04.8-2.57.09-5.35.14-8.31.16-.31-3.09-.97-6.42-1.97-9.93-.74-2.58-1.59-4.97-2.53-7.15.82.05,1.62.1,2.38.14,2.28.12,4.16.17,5.59.17,1.51,0,2.86-.25,4.01-.74,1.19-.51,2.29-1.34,3.24-2.46.04-.05.08-.09.11-.14,1.03-1.37,1.67-3.66,2.08-7.43.35-3.18.61-7.97.78-14.26.05-1.81.1-3.82.14-5.97.02-.76-.28-1.5-.81-2.04-.53-.54-1.26-.85-2.03-.85h-17.62c-1.53,0-2.78,1.21-2.83,2.74-.11,3.21-.27,6.54-.46,9.89-.33,5.67-.89,11.53-1.68,17.43-.02.11-.02.23-.02.34-.03.11-.05.23-.07.34-.28,2.02-.55,3.87-.83,5.66-1.28,7.98-3.13,15.77-5.51,23.13-1.92,5.95-4.33,11.38-7.16,16.19-1.08-1.07-2.33-2.22-3.78-3.45-2.69-2.29-5.45-4.52-8.18-6.63-1.74-1.34-3.32-2.45-4.77-3.34,3.57-6.3,6.23-13.36,7.93-21.02,1.89-8.55,3.12-17.34,3.63-26.13.51-8.69.77-16.84.77-24.23v-48.19h65.99c.77,0,1.51-.32,2.05-.87.53-.56.82-1.31.79-2.08-.3-7.06-.49-13.95-.58-20.52h20.26c-.13,6.87-.08,13.83.14,20.73.05,1.53,1.3,2.74,2.83,2.74h19.31c1.21,0,2.29-.77,2.68-1.91s.02-2.41-.94-3.16c-2.5-1.95-5.12-3.87-7.78-5.71-2.2-1.52-4.36-2.95-6.43-4.28l10.96-10.84M710.9,15.43l-14.97,14.8c2.95,1.82,6.06,3.86,9.35,6.12,2.68,1.85,5.23,3.72,7.65,5.61h-19.31c-.25-7.81-.28-15.64-.07-23.47h-26.02c.07,7.8.29,15.63.62,23.47h-68.82v51.02c0,7.37-.25,15.39-.76,24.07-.51,8.67-1.7,17.24-3.57,25.68-1.87,8.45-4.91,16.02-9.1,22.71,1.93.91,4.25,2.41,6.97,4.51,2.72,2.1,5.41,4.28,8.08,6.55,2.66,2.27,4.68,4.25,6.04,5.95,3.85-5.78,7-12.45,9.44-19.98,2.44-7.54,4.31-15.39,5.61-23.56.31-1.92.58-3.82.84-5.73,1.63,2.92,3.02,6.38,4.18,10.4,1.25,4.37,1.93,8.36,2.04,11.99,3.97,0,7.65-.06,11.06-.17,3.4-.11,6.23-.4,8.5-.85,2.61-.57,4.93-1.36,6.97-2.38,2.04-1.02,3.97-2.78,5.78-5.27,1.36-1.81,2.41-4.87,3.15-9.18.74-4.31,1.28-10.26,1.62-17.86.34-7.6.57-17.18.68-28.74,0-.91.03-2.04.08-3.4.06-1.36.08-3.12.08-5.27h-41.67v-16.16h44.26c.76,9.24,1.77,18.29,3.03,27.13,1.7,11.96,3.88,23.1,6.55,33.42.58,2.26,1.2,4.44,1.84,6.58-9.32,10.38-20.11,18.91-32.37,25.56,1.81,1.59,3.88,3.66,6.21,6.21,2.32,2.55,4.56,5.1,6.72,7.65,2.15,2.55,3.8,4.73,4.93,6.55,9.07-5.72,17.49-12.47,25.27-20.24,3.16,5.33,6.67,9.67,10.53,13.02,5.04,4.36,10.74,6.55,17.09,6.55,5.89,0,10.77-1.05,14.63-3.15,3.85-2.1,6.94-6.07,9.27-11.91,2.32-5.84,4.11-14.26,5.36-25.26-3.29-1.25-6.89-3.2-10.8-5.87-3.91-2.66-7.29-5.41-10.12-8.25-.46,10.32-1.19,17.77-2.21,22.37-1.02,4.59-2.38,6.89-4.08,6.89-2.84,0-5.7-2.58-8.59-7.74-1.21-2.16-2.38-4.67-3.51-7.49.12-.17.24-.33.36-.5,12.25-17.29,21.88-36.99,28.91-59.1l-25-5.95c-3.38,11.66-7.77,22.52-13.14,32.59-.7-3.68-1.37-7.51-1.99-11.5-1.38-8.81-2.5-17.99-3.35-27.55h51.83v-24.32h-18.09l8.57-8.84c-1.93-1.93-4.42-3.94-7.48-6.04-3.06-2.1-6.27-4.19-9.61-6.29-3.35-2.1-6.49-3.88-9.44-5.36h0ZM635.22,133.13c-1.36,0-3.18-.06-5.44-.17-2.12-.1-4.39-.26-6.8-.47.79-5.96,1.36-11.84,1.7-17.65.2-3.44.35-6.76.46-9.95h17.62c-.04,2.15-.09,4.15-.14,5.95-.17,6.24-.42,10.91-.77,14.03-.34,3.12-.85,5.13-1.53,6.04-.68.79-1.42,1.36-2.21,1.7-.79.34-1.76.51-2.89.51h0Z"/>
  </g>
</svg>