<?xml version="1.0" encoding="UTF-8"?>
<svg id="Ebene_1" data-name="Ebene 1" xmlns="http://www.w3.org/2000/svg" viewBox="0 0 336 132.48">
  <defs>
    <style>
      .cls-1 {
        fill: #da9b50;
      }

      .cls-2 {
        fill: #c98738;
      }

      .cls-3 {
        fill: #fad64f;
      }

      .cls-4 {
        fill: #f78a0d;
      }

      .cls-5 {
        fill: #a05e10;
      }

      .cls-6 {
        fill: #f5d8ae;
      }

      .cls-7 {
        fill: #12100a;
      }

      .cls-8 {
        fill: #eee;
      }
    </style>
  </defs>
  <path class="cls-2" d="M30.13,23.19c-3.22-1.3-3.79,6.42-12.22,6.92-7.8.46-10.49-8.18-13.98-8.25-.94-8.8,6.5-15.66,14.04-15.13,9.12.64,14.12,8.33,12.16,16.46Z"/>
  <path class="cls-5" d="M30.13,23.19c-1.71,7.09-7,11.13-14.13,10.52-6.12-.52-11.97-5.34-12.08-11.85,3.5.07,6.18,8.7,13.98,8.25,8.43-.49,9-8.21,12.22-6.92Z"/>
  <g>
    <path class="cls-8" d="M238.07,30.71c.78-3.98,1.87-7.98-.93-11.23-3.81,2.12-6.12,6-7.58,9.98,2.94.74,4.91.89,8.51,1.25ZM118.95,74.07c-.28.64-.74,1.39-.7,2l-12.84-.04c-9.45-3.83-16.5-13.27-18.25-23.93-.65-3.92,1.77-7.59,5.17-8.62,10.81-3.3,6.98,15.39,26.32,22.88.9.35,3.13,2.94,3.73.78.81-2.92,2.05-5.59,3.05-8.17,5.23,3.85,10.39,7.09,17.31,6.07,5.79-.86,11.66-3.76,15.33-9.44,4.86-7.5,5.26-17.05,1.28-24.67,16.33-5.14,34.51-5.31,49.79,5.76-3.02,3.02-8.71,13.67-5.24,14.45.59.13,2.06-.47,2.16-1.06,1.77-10.46,9.91-14.78,17.55-19.99,5.48-3.73,7.53-12.55,14.87-15.25,2.55,5.61,2.77,12.42,3.42,18.31,4.85,1.42,9.07,2.63,12.25,5.62-5.84,12.7,1.79,26.42,15.1,30.44-6.7,6.94-30.36,13.96-40,15.68.64-2.1-8.93-2.36-13.94-6.02-1.64-1.2-2.59-4.03-4.88-3.81-.52-.48-1.13-1.76-1.81-2.09-4.56-2.24-.53,10.12,7.51,14.29-6.25,1.62-12.55,2.38-18.82,2.42-.71-3.15-2.75-6.83-5.96-7.74,2.68-25.86-22.44-33.49-22.39-28.44.03,2.85,11.6.67,17.57,15.29,2.66,6.5,1.89,16.2-3.39,21.16-19.65,1.42-39.16-1.41-58.66-5.01-3.78-2.73-1.48-10.44-3.85-11.29-.66-.23-1.48-.01-1.68.42ZM251.93,67.06c1.79.72,5.8.12,4.9-2.04-.63-1.23-4.48-3-5.8-2.84-2.37.29-1.38,3.97.9,4.88ZM243.35,71.67c.45-.39.71-1.54-.42-1.93-1.27-.43-2.69-.27-3.25-1.21-.36-.6-.24-1.82.49-2.45,1.96-1.7,2.07-3.37.32-4.76-1.17-.92-3.58-1.52-3.91.8-.27,1.81.25,3.62-1.74,4.21-1.03.31-2.76-1.68-4.24-1.05-1.92.81.19,4.1,2.07,3.93,5.82-.52,6.84,5.82,10.68,2.46ZM227.44,53.96c2.56,1.71,6.7,3.22,7.98-1.14-3.84-.12-6.48-1.8-7.98-4.48-1.79.38-2.11,2.19-1.85,3.09.29,1.01.77,1.8,1.85,2.53Z"/>
    <path class="cls-2" d="M325.43,23.19c-3.83,3.17-10.23,3.13-13.8-.32-1.75-1.69-3.18-3.14-5.3-2.88-1.95-8.88,4.91-16.67,13.29-16.3,8.04.36,13.76,7.59,12.46,15.47-2.62.4-4.41,2.16-6.65,4.03Z"/>
    <path class="cls-7" d="M284.71,80.6c11.58-15.06,19.58-30.66,27.29-46.86.66-1.38-.98-2.01-1.73-2.37-.62-.3-1.85.13-2.57,1.17-9.26,13.28-19.88,24.72-31.39,35.91,3.01,4.21,4.36,8.42,8.4,12.15ZM306.33,19.99c.78,6.18,6.54,9.99,12.4,10.19,6.91.25,12.17-3.81,13.35-11.02,1.3-7.88-4.42-15.11-12.46-15.47-8.38-.37-15.24,7.42-13.29,16.3ZM61.62,84.24c42.01,43.78,112.02,54.17,167.66,36,21.42-7,39.14-19.58,52.91-36.85l-8.15-12.09c-38.63,24.05-93.6,25.72-137.55,19.42-23.26-3.34-44.46-10.37-64.83-22.19l-10.04,15.71ZM118.3,79.73c.65-.84,0-2.78-.05-3.66-.04-.61.42-1.36.7-2,.2-.43,1.02-.65,1.68-.42,2.37.85.07,8.56,3.85,11.29,19.5,3.6,39.01,6.43,58.66,5.01,5.28-4.96,6.05-14.66,3.39-21.16-5.97-14.62-17.54-12.44-17.57-15.29-.05-5.05,25.07,2.58,22.39,28.44-.85,2.43-2.86,4.97-3.22,7.95,3.49.89,6.36-.19,9.18-.21,6.27-.04,12.57-.8,18.82-2.42-8.04-4.17-12.07-16.53-7.51-14.29.68.33,1.29,1.61,1.81,2.09,1.04,4.24,4.74,7.14,8.4,9.44,3.99,2.52,6.84,1.03,10.42.39,9.64-1.72,33.3-8.74,40-15.68,6.48-.95,2.06-8.2,5.27-17.08.81-2.24,1.94-4.06,1.85-6.18l-.04-.87c2-2.18,2.46-5.51,1.81-8.84-6.33.66-11.09,3.66-16.91,6.92-1.43-3.2-5.59-2.98-7.08-4.39-3.18-2.99-7.4-4.2-12.25-5.62-.65-5.89-.87-12.7-3.42-18.31-7.34,2.7-9.39,11.52-14.87,15.25-7.64,5.21-15.78,9.53-17.55,19.99-.1.59-1.57,1.19-2.16,1.06-3.47-.78,2.22-11.43,5.24-14.45-15.28-11.07-33.46-10.9-49.79-5.76-14.31,4.5-28.25,13.3-33.92,28.04-1,2.58-2.24,5.25-3.05,8.17-.6,2.16-2.83-.43-3.73-.78-19.34-7.49-15.51-26.18-26.32-22.88-3.4,1.03-5.82,4.7-5.17,8.62,1.75,10.66,8.8,20.1,18.25,23.93,3.78,1.53,7.68,5.08,12.89,3.7ZM327.48,2.2c6.78,3.74,10.27,12.1,7.64,20.3-2.41,7.51-9.99,12.33-19.22,11.09-19.27,42.7-42.95,77.75-90.22,91.59-34.91,10.23-71.66,9.67-106.38-1.38-46.09-14.67-73.52-46.04-96.72-87.07-8.65,2.13-16.83-1.35-20.42-7.96C-2,21.08.18,12.45,5.78,7.54c6.64-5.82,15.73-5.85,21.88-.97,6.98,5.54,9,14.46,4.37,22.77,14.92,16.83,41.17,40.51,63.97,46.07-6.42-7.44-11.86-14.05-12.28-23.3-.27-5.71,2.53-10.73,7.85-12.02,4.79-1.16,10.37,1.61,12.77,6.81,3.1,6.74,6.42,12.89,15.2,15.81,13.27-36.09,60.62-50.06,91.99-29.05,3.07-2.43,7.67-3.32,10.09-6.23,3.77-4.54,11.52-17.22,17.76-15.75,4.89,1.14,4.89,14.43,6.39,18.11,4.25,3.41,11.24,4.24,15.54,8.76,4.9-1.98,15.23-7.89,19.07-5.04,6.77,5.05-8.17,24.87-2.31,27.97,11.2-10.12,19.82-21.39,28.41-32.99-5.44-6.8-5.7-15.62-.52-22.21,4.84-6.17,13.87-8.3,21.52-4.08ZM59.07,81.48c4.1-4.92,6.53-9.31,9.41-15.05-14.54-9.58-26.32-20.44-37.6-32.96-1.3-1.45-5.41.85-4.47,2.53,9.18,16.42,19.76,31.62,32.66,45.48ZM30.12,23.19c1.96-8.13-3.04-15.82-12.16-16.46-7.54-.53-14.98,6.33-14.04,15.13.1,6.51,5.96,11.33,12.07,11.85,7.14.61,12.43-3.43,14.13-10.52Z"/>
    <path class="cls-5" d="M306.33,19.99c2.12-.26,3.55,1.19,5.3,2.88,3.57,3.45,9.97,3.49,13.8.32,2.24-1.87,4.03-3.63,6.65-4.03-1.18,7.21-6.44,11.27-13.35,11.02-5.86-.2-11.62-4.01-12.4-10.19Z"/>
    <path class="cls-6" d="M310.27,31.37c.75.36,2.39.99,1.73,2.37-7.71,16.2-15.71,31.8-27.29,46.86-4.04-3.73-5.39-7.94-8.4-12.15,11.51-11.19,22.13-22.63,31.39-35.91.72-1.04,1.95-1.47,2.57-1.17Z"/>
    <path class="cls-4" d="M261.23,43.16c5.82-3.26,10.58-6.26,16.91-6.92.65,3.33.19,6.66-1.81,8.84-.28-.68-.58-2.67-2.02-2.42-2.45.44-5.4,2.8-5.58,5.45-.13,1.99,2.67,2.02,3.86,1.76,2.55-.55,1.86-2.35,3.78-3.92.09,2.12-1.04,3.94-1.85,6.18-3.21,8.88,1.21,16.13-5.27,17.08-13.31-4.02-20.94-17.74-15.1-30.44,1.49,1.41,5.65,1.19,7.08,4.39Z"/>
    <path class="cls-1" d="M272.59,49.87c-1.19.26-3.99.23-3.86-1.76.18-2.65,3.13-5.01,5.58-5.45,1.44-.25,1.74,1.74,2.02,2.42l.04.87c-1.92,1.57-1.23,3.37-3.78,3.92Z"/>
    <path class="cls-7" d="M256.83,65.02c.9,2.16-3.11,2.76-4.9,2.04-2.28-.91-3.27-4.59-.9-4.88,1.32-.16,5.17,1.61,5.8,2.84Z"/>
    <path class="cls-6" d="M237.14,19.48c2.8,3.25,1.71,7.25.93,11.23-3.6-.36-5.57-.51-8.51-1.25,1.46-3.98,3.77-7.86,7.58-9.98Z"/>
    <path class="cls-7" d="M242.93,69.74c1.13.39.87,1.54.42,1.93-3.84,3.36-4.86-2.98-10.68-2.46-1.88.17-3.99-3.12-2.07-3.93,1.48-.63,3.21,1.36,4.24,1.05,1.99-.59,1.47-2.4,1.74-4.21.33-2.32,2.74-1.72,3.91-.8,1.75,1.39,1.64,3.06-.32,4.76-.73.63-.85,1.85-.49,2.45.56.94,1.98.78,3.25,1.21Z"/>
    <path class="cls-7" d="M235.42,52.82c-1.28,4.36-5.42,2.85-7.98,1.14-1.08-.73-1.56-1.52-1.85-2.53-.26-.9.06-2.71,1.85-3.09,1.5,2.68,4.14,4.36,7.98,4.48Z"/>
    <path class="cls-6" d="M229.25,84.89c-3.58.64-6.43,2.13-10.42-.39-3.66-2.3-7.36-5.2-8.4-9.44,2.29-.22,3.24,2.61,4.88,3.81,5.01,3.66,14.58,3.92,13.94,6.02Z"/>
    <path class="cls-6" d="M191.35,81.94c3.21.91,5.25,4.59,5.96,7.74-2.82.02-5.69,1.1-9.18.21.36-2.98,2.37-5.52,3.22-7.95Z"/>
    <path class="cls-3" d="M136.49,90.72c43.95,6.3,98.92,4.63,137.55-19.42l8.15,12.09c-13.77,17.27-31.49,29.85-52.91,36.85-55.64,18.17-125.65,7.78-167.66-36l10.04-15.71c20.37,11.82,41.57,18.85,64.83,22.19Z"/>
    <path class="cls-4" d="M159.35,30.93c3.98,7.62,3.58,17.17-1.28,24.67-3.67,5.68-9.54,8.58-15.33,9.44-6.92,1.02-12.08-2.22-17.31-6.07,5.67-14.74,19.61-23.54,33.92-28.04Z"/>
    <path class="cls-8" d="M118.25,76.07c.05.88.7,2.82.05,3.66-5.21,1.38-9.11-2.17-12.89-3.7l12.84.04Z"/>
    <path class="cls-6" d="M30.88,33.47c11.28,12.52,23.06,23.38,37.6,32.96-2.88,5.74-5.31,10.13-9.41,15.05-12.9-13.86-23.48-29.06-32.66-45.48-.94-1.68,3.17-3.98,4.47-2.53Z"/>
  </g>
</svg>